<?xml version="1.0" encoding="UTF-8"?><svg id="a" xmlns="http://www.w3.org/2000/svg" viewBox="0 0 512 512"><rect id="b" width="512" height="512" rx="128" ry="128" style="fill:#121212;"/><path id="c" d="M191.38,185c26.81,0,48.55,21.73,48.55,48.55l-.02.67.36-.22c10.23-5.93,22.28-7.9,33.86-5.52l2.88.68c12.38,3.35,22.92,11.49,29.27,22.63,13.33,23.19,5.44,52.79-17.66,66.28l-.83.44.86.47c22.2,12.98,30.47,41,18.87,63.96l-1.23,2.26c-13.18,23.12-42.6,31.18-65.72,18-.11-.06-.21-.12-.31-.18l-.36-.24.02.69c0,25.87-20.28,47.19-46.12,48.48l-2.43.06c-26.81,0-48.55-21.73-48.55-48.55v-.68s-.34.23-.34.23c-10.23,5.94-22.28,7.91-33.86,5.53l-2.86-.68c-12.39-3.34-22.93-11.49-29.29-22.63-13.32-23.18-5.45-52.77,17.63-66.26l.85-.46-.86-.46c-22.2-12.98-30.47-41-18.87-63.96l1.21-2.27c13.17-23.12,42.59-31.19,65.71-18.02.12.07.24.14.36.21l.32.22v-.67c0-25.87,20.28-47.19,46.12-48.48l2.43-.06ZM191.38,282.09c-20.11,0-36.41,16.3-36.41,36.41s16.3,36.41,36.41,36.41,36.41-16.3,36.41-36.41-16.3-36.41-36.41-36.41" style="fill:#ffb4ef;"/></svg>